<svg width="320" height="320" xmlns="http://www.w3.org/2000/svg">
 <defs>
  <filter height="200%" width="200%" y="-50%" x="-50%" id="svg_17_blur">
   <feGaussianBlur stdDeviation="0.2" in="SourceGraphic"/>
  </filter>
  <filter id="svg_1_blur">
   <feGaussianBlur stdDeviation="0.5" in="SourceGraphic"/>
  </filter>
  <linearGradient spreadMethod="pad" y2="0.445313" x2="0.363281" y1="0.082031" x1="0.546875" id="svg_106">
   <stop offset="0" stop-opacity="0.996094" stop-color="#7f007f"/>
   <stop offset="1" stop-opacity="0.996094" stop-color="#ffff00"/>
  </linearGradient>
 </defs>
 <g>
  <title>background</title>
  <rect fill="none" id="canvas_background" height="322" width="322" y="-1" x="-1"/>
 </g>
 <g>
  <title>Layer 1</title>
  <path stroke="null" filter="url(#svg_1_blur)" fill="url(#svg_106)" id="svg_1" d="m298.803277,90.81367c-0.002191,-0.259705 -0.017526,-0.51941 -0.052577,-0.779116c-0.002191,-0.018094 -0.006572,-0.035124 -0.009858,-0.053218c-0.033956,-0.232032 -0.083247,-0.464063 -0.143492,-0.693966c-0.01643,-0.063862 -0.035051,-0.125595 -0.053673,-0.188393c-0.055863,-0.187328 -0.120489,-0.372528 -0.194974,-0.555599c-0.025193,-0.061733 -0.0471,-0.123466 -0.074484,-0.1852c-0.101868,-0.230967 -0.21469,-0.458742 -0.347229,-0.682258c-0.132538,-0.222452 -0.279316,-0.432132 -0.434857,-0.632233c-0.041624,-0.053218 -0.085438,-0.104308 -0.129252,-0.156462c-0.125966,-0.153269 -0.256314,-0.299087 -0.394329,-0.438519c-0.048196,-0.048961 -0.096392,-0.096857 -0.145683,-0.144754c-0.170876,-0.161784 -0.348324,-0.315052 -0.53344,-0.456613c-0.018621,-0.014901 -0.036147,-0.030867 -0.055863,-0.045768c-0.211404,-0.157526 -0.431571,-0.299087 -0.659406,-0.428939c-0.018621,-0.010644 -0.035051,-0.02448 -0.053673,-0.035124l-129.840521,-72.840919c-0.017526,-0.009579 -0.036147,-0.015965 -0.053673,-0.025545c-0.232216,-0.127724 -0.471004,-0.24374 -0.718555,-0.34379c-0.017526,-0.006386 -0.035051,-0.011708 -0.051482,-0.018094c-0.224549,-0.088342 -0.455669,-0.161784 -0.691171,-0.22671c-0.063531,-0.01703 -0.128157,-0.032995 -0.192783,-0.047896c-0.196069,-0.046832 -0.39652,-0.085149 -0.599161,-0.114951c-0.064626,-0.009579 -0.129252,-0.021287 -0.194974,-0.028738c-0.257409,-0.029802 -0.518105,-0.050025 -0.784277,-0.050025s-0.526867,0.020223 -0.784277,0.050025c-0.065722,0.007451 -0.130348,0.019159 -0.194974,0.028738c-0.202641,0.029802 -0.403092,0.067055 -0.599161,0.114951c-0.064626,0.015965 -0.128157,0.030867 -0.192783,0.047896c-0.235502,0.063862 -0.466623,0.138368 -0.691171,0.22671c-0.017526,0.006386 -0.035051,0.011708 -0.051482,0.018094c-0.248646,0.10005 -0.487435,0.216066 -0.718555,0.34379c-0.017526,0.009579 -0.036147,0.015965 -0.053673,0.025545l-129.841617,72.843048c-0.019716,0.010644 -0.037242,0.025545 -0.056959,0.036188c-0.22893,0.130917 -0.451288,0.273542 -0.663787,0.432132c-0.009858,0.006386 -0.017526,0.014901 -0.026289,0.022352c-0.196069,0.147947 -0.381185,0.30973 -0.560824,0.480029c-0.048196,0.045768 -0.095296,0.093664 -0.142397,0.141561c-0.13692,0.139432 -0.268363,0.28525 -0.394329,0.438519c-0.043814,0.053218 -0.088724,0.105372 -0.130348,0.159655c-0.146778,0.191586 -0.285889,0.390622 -0.41295,0.602431c-0.006572,0.010644 -0.01424,0.020223 -0.020812,0.030867c-0.002191,0.003193 -0.004381,0.006386 -0.006572,0.009579c-0.130348,0.221388 -0.242074,0.448098 -0.342847,0.676936c-0.024098,0.055347 -0.04491,0.112823 -0.066817,0.16817c-0.076675,0.188393 -0.143492,0.378914 -0.200451,0.5705c-0.017526,0.060669 -0.035051,0.120273 -0.051482,0.182007c-0.060245,0.227774 -0.108441,0.455548 -0.141301,0.685451c-0.003286,0.021287 -0.008763,0.042575 -0.010954,0.064926c-0.035051,0.26077 -0.051482,0.522603 -0.053673,0.783373c0,0.015965 -0.003286,0.031931 -0.003286,0.047896l0,145.686096c0,0.019159 0.003286,0.037253 0.004381,0.056411c0.002191,0.259705 0.017526,0.51941 0.052577,0.779116c0.002191,0.018094 0.006572,0.035124 0.009858,0.053218c0.033956,0.232032 0.083247,0.464063 0.143492,0.693966c0.01643,0.063862 0.035051,0.125595 0.053673,0.188393c0.055863,0.187328 0.120489,0.372528 0.194974,0.555599c0.025193,0.061733 0.0471,0.123466 0.074484,0.1852c0.101868,0.230967 0.21469,0.458742 0.347229,0.682258c0.004381,0.007451 0.009858,0.013837 0.01424,0.021287c0.141301,0.236289 0.297938,0.464063 0.469909,0.681194c0.097487,0.124531 0.208118,0.23416 0.314368,0.350176c0.084343,0.0926 0.163208,0.189457 0.253028,0.276735c0.135824,0.131981 0.283698,0.249062 0.429381,0.367206c0.074484,0.059604 0.142397,0.125595 0.219072,0.183071c0.165399,0.123466 0.341752,0.229903 0.518105,0.33634c0.063531,0.038317 0.121585,0.085149 0.187306,0.121338l0.037242,0.021287c0.006572,0.003193 0.013144,0.007451 0.019716,0.010644l91.448203,51.304547c3.146965,1.764718 7.163645,0.716318 8.977559,-2.337347s0.738272,-6.959886 -2.405407,-8.72354l-81.646934,-45.804971l26.379521,-14.798938l83.745641,46.982159l0,40.659828c0,0.023416 0.003286,0.045768 0.003286,0.068119c0.001095,0.137303 0.010954,0.274606 0.021907,0.411909c0.005477,0.07557 0.008763,0.152204 0.017526,0.22671c0.01424,0.125595 0.036147,0.250126 0.059149,0.375721c0.015335,0.086214 0.027384,0.173492 0.046005,0.259705c0.023003,0.103243 0.053673,0.206487 0.082152,0.30973c0.028479,0.103243 0.054768,0.207551 0.088724,0.308666c0.027384,0.083021 0.06134,0.164977 0.093105,0.246933c0.04491,0.118145 0.089819,0.237354 0.141301,0.352305c0.031765,0.070248 0.069008,0.138368 0.102964,0.208616c0.06134,0.122402 0.12268,0.24374 0.190592,0.361884c0.012049,0.020223 0.020812,0.042575 0.032861,0.062798c0.019716,0.032995 0.04491,0.061733 0.065722,0.094729c0.110631,0.178813 0.230025,0.351241 0.358182,0.518346c0.04491,0.05854 0.087629,0.11708 0.133634,0.173492c0.156636,0.190521 0.322035,0.374657 0.499484,0.547084c0.049291,0.046832 0.101868,0.088342 0.152255,0.13411c0.138015,0.125595 0.281507,0.245868 0.430476,0.359756c0.072294,0.055347 0.145683,0.108565 0.220167,0.160719c0.15335,0.107501 0.311082,0.206487 0.473195,0.301215c0.055863,0.031931 0.108441,0.067055 0.165399,0.097922c0.224549,0.121338 0.456765,0.230967 0.696648,0.32676c0.033956,0.013837 0.067912,0.023416 0.101868,0.036188c0.207023,0.078763 0.419522,0.146882 0.635308,0.205423c0.064626,0.01703 0.130348,0.032995 0.194974,0.048961c0.190592,0.045768 0.384471,0.081956 0.581635,0.110694c0.070103,0.010644 0.139111,0.022352 0.209213,0.030867c0.238788,0.027674 0.479767,0.043639 0.725127,0.045768c0.017526,0 0.035051,0.003193 0.052577,0.003193c0.033956,0 0.069008,-0.005322 0.102964,-0.006386c0.219072,-0.003193 0.435953,-0.01703 0.649548,-0.040446c0.086533,-0.009579 0.173067,-0.025545 0.2596,-0.038317c0.176353,-0.026609 0.350515,-0.05854 0.521391,-0.098986c0.081057,-0.019159 0.162113,-0.038317 0.24317,-0.060669c0.213595,-0.05854 0.423904,-0.126659 0.62764,-0.205423c0.033956,-0.012772 0.069008,-0.022352 0.102964,-0.036188c0.248646,-0.10005 0.487435,-0.216066 0.718555,-0.34379c0.017526,-0.009579 0.036147,-0.015965 0.053673,-0.025545l129.841617,-72.843048c2.032986,-1.141 3.286076,-3.249508 3.286076,-5.530443l0,-145.692483c0.003286,-0.018094 0,-0.037253 -0.001095,-0.056411zm-220.155028,112.507694l0,-79.378253l26.413477,14.731883l0,49.827208l-26.413477,14.819161zm-39.523824,-101.421263l26.379521,14.712725l0,94.083527l-26.379521,14.798938l0,-123.59519zm116.697313,50.360455l-30.783958,-17.16928l30.783958,-17.269331l0,34.438611zm13.144303,-34.439675l31.043558,17.416213l-31.043558,17.415149l0,-34.831362zm44.187861,10.041224l-44.187861,-24.790138l0,-29.636194l70.601338,39.608234l-26.413477,14.818097zm-57.332164,-69.175245l-49.291137,27.653281c-3.143679,1.763654 -4.220417,5.669875 -2.405407,8.72354c1.815009,3.053665 5.834975,4.102065 8.977559,2.337347l42.718985,-23.966319l0,29.637258l-43.966598,24.665607l-66.130084,-36.883459l110.096683,-61.766196l0,29.598941zm-37.615709,87.320548l31.394073,17.509877l-31.394073,17.612056l0,-35.121934zm37.615709,28.767672l0,34.831362l-31.043558,-17.415149l31.043558,-17.416213zm13.144303,-0.456613l31.541946,17.592898l-31.541946,17.695077l0,-35.287975zm0,50.035824l44.724587,-25.091353l26.491248,14.775522l-71.215834,39.953089l0,-29.637258zm50.760012,-36.452391l0,-26.316438c0,-3.526243 -2.943229,-6.386193 -6.572152,-6.386193s-6.572152,2.85995 -6.572152,6.386193l0,18.986152l-30.634989,-17.08626l70.192769,-39.379396l0,78.528889l-26.413477,-14.732948zm32.985629,-82.231817l-83.745641,-46.982159l0,-29.600005l110.125162,61.782162l-26.379521,14.800003zm-167.491282,108.713231l26.413477,-14.818097l44.187861,24.790138l0,29.637258l-70.601338,-39.609299zm83.745641,83.955024l0,-29.598941l84.398475,-47.348301l15.293397,8.529825c1.031828,0.575822 2.156761,0.848299 3.265264,0.848299c2.277251,0 4.492066,-1.151644 5.706818,-3.207998c1.806246,-3.058987 0.718555,-6.962015 -2.42841,-8.717154l-15.917751,-8.877873l0,-93.235227l26.379521,-14.798938l0,130.938248l-116.697313,65.468059z"/>
  <g id="svg_2"/>
  <g id="svg_3"/>
  <g id="svg_4"/>
  <g id="svg_5"/>
  <g id="svg_6"/>
  <g id="svg_7"/>
  <g id="svg_8"/>
  <g id="svg_9"/>
  <g id="svg_10"/>
  <g id="svg_11"/>
  <g id="svg_12"/>
  <g id="svg_13"/>
  <g id="svg_14"/>
  <g id="svg_15"/>
  <g id="svg_16"/>
  <text filter="url(#svg_17_blur)" stroke="#000" transform="matrix(14.03587279833421,0,0,8.35354731534739,-1138.7330685246272,-491.2624684014378) " xml:space="preserve" text-anchor="start" font-family="'Palatino Linotype', 'Book Antiqua', Palatino, serif" font-size="24" id="svg_17" y="75.497601" x="82.432361" stroke-width="0" fill="#000000">j</text>
  <g stroke="null" transform="rotate(0.0000763431380619295 208.63461308290863,214.6564331148455) " id="svg_86">
   <g stroke="null" transform="matrix(0.5188092250404727,0,0,0.5188092250404727,-369.4886458491344,-379.16346758683744) " id="svg_68">
    <g stroke="null" id="svg_69">
     <path stroke="null" fill="#00007f" id="svg_70" d="m1303.792305,1280.892095l-114.368,-114.368c30.826,-54.189 23.166,-124.495 -23.001,-170.663c-55.367,-55.366 -145.453,-55.366 -200.818,0c-55.365,55.366 -55.366,145.452 0,200.818c46.167,46.167 116.474,53.827 170.663,23.001l114.367,114.369c14.655,14.655 38.503,14.654 53.157,0c14.656,-14.654 14.657,-38.501 0,-53.157zm-165.654,-112.497c-39.77,39.771 -104.479,39.771 -144.25,0c-39.77,-39.77 -39.77,-104.48 0,-144.25c39.771,-39.77 104.48,-39.77 144.25,0c39.771,39.77 39.77,104.481 0,144.25z"/>
    </g>
   </g>
   <g stroke="null" transform="matrix(0.5188092250404727,0,0,0.5188092250404727,-369.4886458491344,-379.16346758683744) " id="svg_71"/>
   <g stroke="null" transform="matrix(0.5188092250404727,0,0,0.5188092250404727,-369.4886458491344,-379.16346758683744) " id="svg_72"/>
   <g stroke="null" transform="matrix(0.5188092250404727,0,0,0.5188092250404727,-369.4886458491344,-379.16346758683744) " id="svg_73"/>
   <g stroke="null" transform="matrix(0.5188092250404727,0,0,0.5188092250404727,-369.4886458491344,-379.16346758683744) " id="svg_74"/>
   <g stroke="null" transform="matrix(0.5188092250404727,0,0,0.5188092250404727,-369.4886458491344,-379.16346758683744) " id="svg_75"/>
   <g stroke="null" transform="matrix(0.5188092250404727,0,0,0.5188092250404727,-369.4886458491344,-379.16346758683744) " id="svg_76"/>
   <g stroke="null" transform="matrix(0.5188092250404727,0,0,0.5188092250404727,-369.4886458491344,-379.16346758683744) " id="svg_77"/>
   <g stroke="null" transform="matrix(0.5188092250404727,0,0,0.5188092250404727,-369.4886458491344,-379.16346758683744) " id="svg_78"/>
   <g stroke="null" transform="matrix(0.5188092250404727,0,0,0.5188092250404727,-369.4886458491344,-379.16346758683744) " id="svg_79"/>
   <g stroke="null" transform="matrix(0.5188092250404727,0,0,0.5188092250404727,-369.4886458491344,-379.16346758683744) " id="svg_80"/>
   <g stroke="null" transform="matrix(0.5188092250404727,0,0,0.5188092250404727,-369.4886458491344,-379.16346758683744) " id="svg_81"/>
   <g stroke="null" transform="matrix(0.5188092250404727,0,0,0.5188092250404727,-369.4886458491344,-379.16346758683744) " id="svg_82"/>
   <g stroke="null" transform="matrix(0.5188092250404727,0,0,0.5188092250404727,-369.4886458491344,-379.16346758683744) " id="svg_83"/>
   <g stroke="null" transform="matrix(0.5188092250404727,0,0,0.5188092250404727,-369.4886458491344,-379.16346758683744) " id="svg_84"/>
   <g stroke="null" transform="matrix(0.5188092250404727,0,0,0.5188092250404727,-369.4886458491344,-379.16346758683744) " id="svg_85"/>
  </g>
 </g>
</svg>